<svg id="visual" viewBox="0 0 540 960" width="540" height="960" xmlns="http://www.w3.org/2000/svg" xmlns:xlink="http://www.w3.org/1999/xlink" version="1.1"><rect x="0" y="0" width="540" height="960" fill="#001220"></rect><defs><linearGradient id="grad1_0" x1="0%" y1="0%" x2="100%" y2="100%"><stop offset="30%" stop-color="#001220" stop-opacity="1"></stop><stop offset="70%" stop-color="#001220" stop-opacity="1"></stop></linearGradient></defs><defs><linearGradient id="grad2_0" x1="0%" y1="0%" x2="100%" y2="100%"><stop offset="30%" stop-color="#001220" stop-opacity="1"></stop><stop offset="70%" stop-color="#001220" stop-opacity="1"></stop></linearGradient></defs><g transform="translate(540, 0)"><path d="M0 459C-55.3 430.8 -110.7 402.5 -153.8 371.4C-197 340.3 -228 306.3 -276.5 276.5C-324.9 246.7 -390.7 221 -424.1 175.7C-457.4 130.3 -458.2 65.1 -459 0L0 0Z" fill="#FFBC01"></path></g><g transform="translate(0, 960)"><path d="M0 -459C67.1 -460.1 134.1 -461.2 175.7 -424.1C217.2 -386.9 233.2 -311.5 263 -263C292.9 -214.6 336.4 -193.2 371.4 -153.8C406.4 -114.5 432.7 -57.2 459 0L0 0Z" fill="#FFBC01"></path></g></svg>